<?xml version="1.0" encoding="UTF-8"?>
<svg width="48" height="48" viewBox="0 0 48 48" fill="none" xmlns="http://www.w3.org/2000/svg">
  <circle cx="24" cy="24" r="24" fill="#5B21B6"/>
  <path d="M32 28.92v2.84a1.89 1.89 0 0 1-2.06 1.89 18.73 18.73 0 0 1-8.17-2.91 18.46 18.46 0 0 1-5.68-5.68 18.73 18.73 0 0 1-2.91-8.21A1.89 1.89 0 0 1 15.06 15h2.84a1.89 1.89 0 0 1 1.89 1.63 12.15 12.15 0 0 0 .66 2.66 1.89 1.89 0 0 1-.43 2L18.66 22.6a15.12 15.12 0 0 0 5.68 5.68l1.31-1.31a1.89 1.89 0 0 1 2-.43 12.15 12.15 0 0 0 2.66.66A1.89 1.89 0 0 1 32 28.92z" stroke="white" stroke-width="2" stroke-linecap="round" stroke-linejoin="round"/>
</svg>
