<svg width="107" height="37" viewBox="0 0 107 37" fill="none" xmlns="http://www.w3.org/2000/svg">
<path d="M52.23 18.5558L42.6522 8.97803V28.0626L52.23 18.5558ZM33.1454 18.5558L42.7232 8.97803H23.5676L33.1454 18.5558ZM13.9898 18.5558L23.5676 28.1336V8.97803L13.9898 18.5558ZM33.1454 18.5558L23.5676 28.1336H42.6522L33.1454 18.5558Z" fill="#42175B"/>
<path d="M62.2417 19.2652H57.9139V23.522H55.7855V13.5895H57.9139V17.7044H62.2417V13.5895H64.3701V23.522H62.2417V19.2652ZM69.6201 23.7348C67.4917 23.7348 65.718 22.8835 65.6471 20.4713H67.7755C67.7755 21.5355 68.414 22.174 69.6201 22.174C70.4715 22.174 71.4647 21.7483 71.4647 20.7551C71.4647 19.9747 70.8262 19.7618 69.691 19.4071L68.9816 19.1943C67.4208 18.7686 65.8599 18.1301 65.8599 16.3564C65.8599 14.1571 67.9174 13.3766 69.8329 13.3766C71.7485 13.3766 73.4512 14.0152 73.4512 16.2855H71.3228C71.2519 15.3631 70.6843 14.8665 69.691 14.8665C68.9106 14.8665 68.1302 15.2922 68.1302 16.2145C68.1302 16.924 68.7687 17.1368 70.1877 17.6334L70.9681 17.8463C72.6708 18.4139 73.735 18.9814 73.735 20.6132C73.735 22.8835 71.5357 23.7348 69.6201 23.7348ZM74.9411 13.5895H78.4175C79.056 13.5895 79.7655 13.5895 80.404 13.7314C81.6101 14.0152 82.5324 14.7956 82.5324 16.1436C82.5324 17.4206 81.752 18.0591 80.5459 18.4139C81.8938 18.6976 82.8871 19.3362 82.8871 20.826C82.8871 23.0963 80.6168 23.5929 78.9141 23.5929H75.012L74.9411 13.5895ZM78.4175 17.7753C79.3398 17.7753 80.333 17.5625 80.333 16.4273C80.333 15.3632 79.4107 15.0794 78.5594 15.0794H77.0695V17.7044L78.4175 17.7753ZM78.6303 22.0321C79.6236 22.0321 80.6168 21.8193 80.6168 20.6132C80.6168 19.4071 79.7655 19.1943 78.7722 19.1943H77.0695V22.1031L78.6303 22.0321ZM88.4919 23.7348C85.2993 23.7348 83.8803 21.6774 83.8803 18.6267C83.8803 15.576 85.4412 13.3766 88.6338 13.3766C90.6203 13.3766 92.5358 14.299 92.6068 16.4983H90.3365C90.1946 15.505 89.5561 15.0084 88.6338 15.0084C86.6473 15.0084 86.0797 17.1368 86.0797 18.6976C86.0797 20.2585 86.6473 22.1031 88.5628 22.1031C89.5561 22.1031 90.2655 21.5355 90.4074 20.5422H92.6777C92.323 22.8835 90.5493 23.7348 88.4919 23.7348Z" fill="#42175B"/>
</svg>
