<svg width="107" height="37" viewBox="0 0 107 37" fill="none" xmlns="http://www.w3.org/2000/svg">
<path d="M41.523 26.9731H45.5586L48.7225 15.2216H44.6869L41.523 26.9731Z" fill="#42175B"/>
<path d="M62.2175 26.9731H66.253L69.4169 15.2216H65.3814L62.2175 26.9731Z" fill="#42175B"/>
<path d="M82.912 26.9731H86.9476L90.1115 15.2216H86.0759L82.912 26.9731Z" fill="#42175B"/>
<path d="M58.471 19.2248H62.5066C63.0554 16.5775 61.3443 15.2216 57.3733 15.2216C52.7889 15.2216 49.6896 17.4492 48.6565 21.3556C47.7202 24.8746 49.5927 27.0054 53.8866 27.0054C58.245 27.0054 60.7955 25.6495 61.8932 22.6147H57.8576C57.3087 23.9384 56.2434 24.6487 54.7905 24.6487C52.8535 24.6487 52.0786 23.4218 52.6598 21.1619C53.2732 18.8374 54.7583 17.5461 56.7276 17.5461C57.9867 17.5783 58.5678 18.1272 58.471 19.2248Z" fill="#42175B"/>
<path d="M79.1672 19.2248H83.2028C83.7516 16.5775 82.0405 15.2216 78.0695 15.2216C73.4851 15.2216 70.3858 17.4492 69.3527 21.3556C68.4164 24.8746 70.2889 27.0054 74.5828 27.0054C78.9412 27.0054 81.4917 25.6495 82.5894 22.6147H78.5538C78.0049 23.9384 76.9396 24.6487 75.4867 24.6487C73.5497 24.6487 72.7748 23.4218 73.356 21.1619C73.9694 18.8374 75.4545 17.5461 77.4238 17.5461C78.6829 17.5783 79.264 18.1272 79.1672 19.2248Z" fill="#42175B"/>
<path d="M23.3791 11.8961C28.7706 6.56914 35.2921 5.18091 37.9071 8.82906C40.5222 12.4772 38.23 19.8058 32.8384 25.1651C27.4469 30.492 20.9254 31.8802 18.3104 28.2321C15.6953 24.5839 17.9553 17.2553 23.3791 11.8961Z" fill="#42175B"/>
<path d="M26.9297 9.05488C26.3486 9.50687 25.7352 9.99114 25.1541 10.5723C20.4082 15.2212 18.4712 21.6136 20.7957 24.8098C23.1847 28.0059 29.0282 26.8437 33.8386 22.1301C36.4214 19.6119 38.1648 16.674 38.9073 13.9621C39.1333 11.9605 38.8427 10.1848 37.9388 8.82889C35.808 5.98785 31.385 6.21384 26.9297 9.05488Z" fill="#42175B"/>
<path d="M33.4191 8.8934C34.0326 9.5068 33.6774 10.895 32.5798 11.9927C31.4821 13.0581 30.0938 13.4455 29.4804 12.8321C28.8347 12.2187 29.2222 10.8305 30.2875 9.7328C31.4175 8.60284 32.8057 8.27999 33.4191 8.8934ZM29.6096 27.7799C27.0914 29.6847 24.4763 30.6209 21.9258 30.2335C22.9912 30.2981 23.8629 29.1035 24.5732 27.5216C25.2834 25.9074 25.7354 24.39 26.0583 22.9695C26.5748 20.7418 26.6071 19.1276 26.3488 18.7725C25.9291 18.1914 24.9283 18.3528 23.8306 18.9985C23.3141 19.289 22.6038 19.0953 23.4432 18.0945C24.2826 17.0614 27.6402 14.6078 28.867 14.2204C30.1907 13.8329 31.7081 14.3495 31.1915 15.8023C30.8041 16.8677 26.1551 29.0713 29.6096 27.7799Z" fill="white"/>
</svg>
