<svg width="108" height="37" viewBox="0 0 108 37" fill="none" xmlns="http://www.w3.org/2000/svg">
<path fill-rule="evenodd" clip-rule="evenodd" d="M43.3842 15.1266C43.0041 14.398 42.5131 13.6852 41.9112 13.02C40.5332 11.5312 38.5851 10.2958 36.2885 9.44046C33.976 8.58518 31.3151 8.12585 28.6384 8.12585C25.9458 8.12585 23.3008 8.58518 20.9883 9.44046C18.6759 10.2958 16.7277 11.5312 15.3497 13.02C14.732 13.6852 14.241 14.3821 13.8609 15.1266C16.8544 14.4138 21.9861 13.4477 26.7378 13.3526C27.1971 13.3368 27.5138 13.4952 27.7197 13.7486C27.9732 14.0654 27.9573 15.2216 27.9415 15.7284L27.7989 28.9696C28.0682 28.9854 28.3375 28.9854 28.6067 28.9854C28.876 28.9854 29.1452 28.9854 29.4145 28.9696L29.2719 15.7284C29.2719 15.2216 29.2403 14.0654 29.4937 13.7486C29.6996 13.4793 30.0164 13.3368 30.4757 13.3526C35.2748 13.4477 40.3907 14.398 43.3842 15.1266Z" fill="#42175B"/>
<path fill-rule="evenodd" clip-rule="evenodd" d="M44.0195 16.853C39.648 15.8552 36.7179 15.681 33.8194 15.5226C31.301 15.38 31.2694 16.2828 31.5228 17.9934C31.5386 18.1043 31.5545 18.231 31.5861 18.3736C32.4256 23.3786 33.4868 27.6867 33.661 28.4153C39.8064 27.0056 44.2254 23.1252 44.2254 18.5478C44.2254 17.9776 44.1621 17.4074 44.0195 16.853Z" fill="#42175B"/>
<path fill-rule="evenodd" clip-rule="evenodd" d="M25.7267 17.9934C25.9802 16.2828 25.9485 15.38 23.4301 15.5226C20.5316 15.681 17.6173 15.871 13.23 16.853C13.1033 17.4074 13.0241 17.9776 13.0241 18.5636C13.0241 20.5435 13.8319 22.4441 15.3524 24.0913C16.7304 25.5802 18.6785 26.8156 20.9751 27.6709C21.8146 27.9876 22.6857 28.2252 23.5885 28.4311C23.7627 27.7501 24.8398 23.3469 25.6951 18.2627C25.7109 18.1518 25.7267 18.0726 25.7267 17.9934Z" fill="#42175B"/>
<path fill-rule="evenodd" clip-rule="evenodd" d="M53.1143 13.3685H63.1402V16.4095H60.2576V23.7428H56.0762V16.4095H53.1143V13.3685Z" fill="#42175B"/>
<path fill-rule="evenodd" clip-rule="evenodd" d="M68.2089 17.5657L66.1024 23.7428H62.0952L66.0232 13.3685H70.3788L74.4177 23.7428H70.3472L68.2089 17.5657Z" fill="#42175B"/>
<path fill-rule="evenodd" clip-rule="evenodd" d="M73.4511 13.3685H83.477V16.4095H80.6102V23.7428H76.4288V16.4095H73.4511V13.3685Z" fill="#42175B"/>
<path fill-rule="evenodd" clip-rule="evenodd" d="M88.5616 17.5657L86.4392 23.7428H82.432L86.3758 13.3685H90.7315L94.7545 23.7428H90.6998L88.5616 17.5657Z" fill="#42175B"/>
</svg>
