<svg width="107" height="37" viewBox="0 0 107 37" fill="none" xmlns="http://www.w3.org/2000/svg">
<path d="M73.9461 12.2024C73.3282 11.9875 72.8178 11.7994 72.8178 11.3964C72.8178 10.9397 73.1402 10.7248 73.8118 10.7248C74.3491 10.7248 75.0208 10.9129 75.585 11.2353H75.6118L75.9342 10.2412C75.37 9.8651 74.4029 9.59644 73.4894 9.59644C71.9312 9.59644 70.9909 10.3218 70.9909 11.5576C70.9909 12.8472 72.0655 13.2233 72.9521 13.5994C73.5969 13.8681 74.2417 14.1905 74.2417 14.6741C74.2417 15.1845 73.8656 15.3726 73.1402 15.3726C72.4954 15.3726 71.77 15.1577 71.2058 14.8084H71.179L70.8297 15.8293C71.3939 16.2323 72.4417 16.5278 73.3551 16.5278C74.2148 16.5278 74.8865 16.3398 75.3432 15.9368C75.7999 15.5606 76.0148 14.9965 76.0148 14.298C76.0148 12.9815 74.8596 12.5517 73.9461 12.2024Z" fill="#42175B"/>
<path d="M69.9181 14.1905V12.5248C69.9181 11.5308 69.6763 10.8054 69.1928 10.3218C68.6554 9.78452 68.0644 9.54272 67.2047 9.54272C66.3181 9.54272 65.2704 9.86511 64.5718 10.3487L64.8674 11.3427H64.8942C65.4584 10.9935 66.1032 10.7786 66.6942 10.7786C67.2047 10.7786 67.6345 10.9129 67.8495 11.1547C68.0913 11.4233 68.1987 11.6651 68.1987 12.3368C67.7957 12.1487 67.2853 12.1756 66.8017 12.1756C66.7211 12.1756 66.6674 12.1756 66.5868 12.1756C65.0554 12.1756 64.0883 13.0084 64.0883 14.3786C64.0883 15.0234 64.3032 15.5607 64.7062 15.9368C65.1092 16.3129 65.7002 16.5278 66.3987 16.5278C67.0166 16.5278 67.7689 16.286 68.3599 15.8831C68.3868 16.0711 68.4405 16.2054 68.4942 16.3666H70.0256V16.3398C69.945 15.6413 69.9181 15.1845 69.9181 14.1905ZM68.1987 13.3308V14.9159C67.742 15.1845 67.2853 15.4532 66.9629 15.4532C66.2913 15.4532 65.9151 15.0771 65.9151 14.3786C65.9151 13.6263 66.3181 13.1965 67.0435 13.1965C67.0972 13.1965 67.151 13.1965 67.1778 13.1965C67.2316 13.1965 67.2853 13.1965 67.3659 13.1965C67.5808 13.1965 67.9032 13.1965 68.1987 13.3308Z" fill="#42175B"/>
<path d="M31.0971 8.25298H33.7031V16.3665H35.6643V8.25298H38.2703V6.85596H31.0971V8.25298Z" fill="#42175B"/>
<path d="M40.9032 16.3665V11.2888C41.2793 11.0202 41.7629 10.859 42.1659 10.859C42.8912 10.859 43.2405 11.3425 43.2405 12.3634V16.3665H45.0674V12.3903C45.0674 11.45 44.8524 10.7515 44.3957 10.2679C43.9659 9.8112 43.5092 9.62314 42.8375 9.62314C42.1659 9.62314 41.4674 9.8112 40.9032 10.1605V6.85596H39.0763V16.3396L40.9032 16.3665Z" fill="#42175B"/>
<path d="M61.4029 16.3666H63.2298V12.3905C63.2298 11.3696 63.0417 10.6979 62.6119 10.2412C62.2089 9.81136 61.7253 9.59644 61.0805 9.59644C60.3283 9.59644 59.5223 9.89196 58.8238 10.4293C58.7969 10.4024 58.77 10.3487 58.7432 10.3218C58.7163 10.295 58.7163 10.2949 58.6894 10.2681C58.2865 9.83823 57.776 9.6233 57.1581 9.6233C56.4596 9.6233 55.7342 9.8651 55.1163 10.3218C55.0626 10.1606 55.0357 10.08 55.0088 9.99942C54.982 9.94569 54.982 9.86509 54.9551 9.81136H53.4775V16.3398H55.3044V12.7397C55.3044 12.4442 55.3044 12.1487 55.3044 11.88C55.3044 11.6651 55.3044 11.4502 55.3044 11.2621C55.7611 10.9129 56.2178 10.8323 56.5133 10.8323C56.782 10.8323 56.9969 10.9129 57.1581 11.0741C57.373 11.3427 57.4805 11.692 57.4805 12.3368V16.3398H59.3074V12.3636C59.3074 12.1487 59.3074 11.9606 59.3074 11.7457C59.3074 11.5576 59.3074 11.3696 59.3074 11.2084C59.7641 10.8591 60.1671 10.8054 60.4626 10.8054C60.7312 10.8054 60.9462 10.886 61.1074 11.0472C61.3223 11.3159 61.4298 11.6651 61.4298 12.3099L61.4029 16.3666Z" fill="#42175B"/>
<path d="M49.2323 16.5278C50.2801 16.5278 51.1398 16.2054 51.7308 15.6144C52.3219 15.0233 52.6174 14.1636 52.6174 13.1427C52.6174 12.095 52.3219 11.2353 51.7308 10.5905C51.1398 9.94569 50.2801 9.59644 49.2323 9.59644C47.1636 9.59644 45.9009 10.886 45.9009 13.0621C45.9278 15.2114 47.1636 16.5278 49.2323 16.5278ZM49.2323 10.6711C50.1726 10.6711 50.6562 11.477 50.6562 13.0621C50.6562 14.6472 50.1726 15.4532 49.2323 15.4532C48.292 15.4532 47.8084 14.6472 47.8084 13.0621C47.8084 11.477 48.292 10.6711 49.2323 10.6711Z" fill="#42175B"/>
<path d="M45.5 28.509C44.7746 28.8045 43.8343 28.9388 43.297 28.9388C42.5448 28.9388 42.0075 28.7507 41.6045 28.4015C40.9328 27.7836 40.6373 26.8433 40.6373 25.4462C40.6373 23.7806 41.1209 22.9209 41.5508 22.491C41.9269 22.1149 42.4642 21.9268 43.1358 21.9268C43.7537 21.9268 44.6941 22.088 45.4463 22.4641H45.4732L45.8224 21.3358C44.9627 20.8253 43.8075 20.6373 43.0015 20.6373C41.7119 20.6373 40.691 21.0134 39.9388 21.7925C39.0791 22.6791 38.6224 23.9418 38.6224 25.4462C38.6224 27.1119 39.106 28.4284 40.0194 29.2343C40.7448 29.906 41.7657 30.2284 43.0284 30.2284C43.8343 30.2284 44.9627 30.0672 45.8224 29.6642L45.5 28.509Z" fill="#42175B"/>
<path d="M49.5284 23.3239C47.4597 23.3239 46.197 24.6135 46.197 26.7896C46.197 28.9657 47.4328 30.2553 49.5284 30.2553C51.597 30.2553 52.8597 28.9657 52.8597 26.7896C52.8597 24.6135 51.6239 23.3239 49.5284 23.3239ZM49.5284 29.1538C48.5881 29.1538 48.1045 28.3478 48.1045 26.7627C48.1045 25.1777 48.5881 24.3717 49.5284 24.3717C50.4687 24.3717 50.9523 25.1777 50.9523 26.7627C50.9791 28.3478 50.4956 29.1538 49.5284 29.1538Z" fill="#42175B"/>
<path d="M67.1279 23.4854H65.2205L62.7757 25.9033V20.557H60.9488V30.0675H62.7757V27.2197L65.0593 30.0406V30.0675H67.1817L64.1727 26.36L67.1279 23.4854Z" fill="#42175B"/>
<path d="M56.7836 23.3239C54.715 23.3239 53.4523 24.6135 53.4523 26.7896C53.4523 28.9657 54.6881 30.2553 56.7836 30.2553C58.8523 30.2553 60.0881 28.9657 60.0881 26.7896C60.0881 24.6135 58.8523 23.3239 56.7836 23.3239ZM56.7836 29.1538C55.8433 29.1538 55.3597 28.3478 55.3597 26.7627C55.3597 25.1777 55.8433 24.3717 56.7836 24.3717C57.7239 24.3717 58.2075 25.1777 58.2075 26.7627C58.2075 28.3478 57.7239 29.1538 56.7836 29.1538Z" fill="#42175B"/>
</svg>
