<svg width="108" height="37" viewBox="0 0 108 37" fill="none" xmlns="http://www.w3.org/2000/svg">
<path d="M24.0466 12.8858V24.637H19.9479V23.1799C19.1117 24.3329 17.9081 24.9917 16.1914 24.9917C13.442 24.9917 11.8456 23.389 11.8456 20.4496V12.8858H15.9443V19.5944C15.9443 21.1465 16.5841 21.7799 17.8638 21.7799C19.2131 21.7799 19.9543 21.0324 19.9543 19.4741V12.8858H24.0466ZM39.2882 18.7519C39.2882 20.1139 39.0412 21.2225 38.6231 22.141C37.7615 23.9085 36.1145 24.9664 33.8593 24.9664C32.2629 24.9664 31.0339 24.4469 30.1724 23.3383V29.3881H26.0737V12.8858H30.0837V14.2985C30.9706 13.0949 32.2185 12.5311 33.8656 12.5311C36.1271 12.5311 37.7679 13.5953 38.6294 15.3817C39.0412 16.3003 39.2882 17.4089 39.2882 18.7519ZM34.9235 18.7519C34.9235 17.9284 34.8222 17.3392 34.6258 16.9148C34.2584 16.1356 33.5235 15.7365 32.5163 15.7365C30.9706 15.7365 30.1344 16.6741 30.1344 18.4161V19.0496C30.1344 20.7917 30.9706 21.7293 32.5163 21.7293C33.5235 21.7293 34.2584 21.3302 34.6258 20.551C34.8222 20.1392 34.9235 19.5691 34.9235 18.7519ZM59.9335 12.8858H64.0132V13.9437C64.653 12.9555 65.3372 12.5564 66.3254 12.5564C67.7951 12.5564 68.7327 13.4749 68.7327 14.8369C68.7327 16.1546 67.7761 17.1238 66.3761 17.1238C65.5145 17.1238 64.7797 16.6931 64.4566 16.0596C64.1145 16.1989 64.0385 16.389 64.0385 17.2125V24.6243H59.9399L59.9335 12.8858ZM81.7064 17.8777V24.637H77.6078V23.2496C76.7969 24.3329 75.5426 24.9664 73.5535 24.9664C71.615 24.9664 70.1643 24.3076 69.5562 22.9899C69.3091 22.5211 69.2141 21.9763 69.2141 21.3175C69.2141 20.684 69.3091 20.1646 69.5055 19.7148C70.3924 17.8777 72.768 17.4532 75.7643 17.4532H77.6078V17.2632C77.6078 16.56 77.5634 16.3003 77.4114 15.9899C77.1707 15.4768 76.6005 15.2107 75.72 15.2107C74.7634 15.2107 74.225 15.4514 73.9779 15.9645C73.8829 16.1989 73.8575 16.3636 73.8322 16.6741H69.6575C69.6829 16.0342 69.8096 15.4958 70.025 15.027C70.8358 13.3039 72.9263 12.5311 75.6757 12.5311C78.6404 12.5311 80.3888 13.2786 81.1997 14.9763C81.5354 15.7618 81.7064 16.7247 81.7064 17.8777ZM77.3861 21.1021C77.5571 20.7727 77.6078 20.4433 77.6078 19.8098V19.6451H76.0367C74.8585 19.6451 73.9019 19.7655 73.6358 20.3799C73.5598 20.5193 73.5155 20.684 73.5155 20.8931C73.5155 21.1021 73.5408 21.2732 73.6358 21.4569C73.8829 21.9763 74.5227 22.16 75.2639 22.16C76.3535 22.16 77.063 21.7863 77.3861 21.1021ZM96.5997 8.02064V24.637H92.6024V23.2243C91.7155 24.4026 90.4865 24.9664 88.8205 24.9664C86.5589 24.9664 84.9182 23.9275 84.0567 22.141C83.6386 21.2225 83.3915 20.1139 83.3915 18.7519C83.3915 17.4152 83.6386 16.3066 84.0567 15.3881C84.8865 13.6016 86.5589 12.5374 88.8205 12.5374C90.4169 12.5374 91.6205 13.0568 92.501 14.1591V8.02064H96.5997ZM92.5454 18.4225C92.5454 16.6804 91.7092 15.7428 90.1635 15.7428C89.1562 15.7428 88.4214 16.1419 88.054 16.9211C87.8576 17.3455 87.7562 17.9347 87.7562 18.7582C87.7562 19.6071 87.8576 20.1709 88.054 20.6207C88.4214 21.3935 89.1562 21.799 90.1635 21.799C91.7092 21.799 92.5454 20.8551 92.5454 19.1193V18.4225ZM50.672 15.7935V18.8216H53.3199L53.2249 19.2207C52.8955 20.5383 51.2548 21.4189 49.9245 21.4189C48.081 21.4189 45.6928 20.57 45.6928 16.5093C45.6928 13.1455 47.2258 11.5428 49.5824 11.5428C50.8684 11.5428 51.8566 11.8342 52.4521 12.6894C52.6991 13.0695 52.9272 13.5826 52.9589 14.0134H57.653C57.653 14.0134 57.767 11.9229 55.9933 10.1111C55.9616 10.0795 55.9362 10.0541 55.9109 10.0288C54.4792 8.54643 52.3317 7.7229 49.6774 7.7229C44.2548 7.7229 40.7516 11.1817 40.7516 16.5347C40.7516 22.7238 45.186 24.922 48.9869 24.922C51.1218 24.922 53.0349 24.3076 54.2068 23.1103L54.2638 24.637H57.9381V15.7935H50.672Z" fill="#42175B"/>
</svg>
