<svg width="108" height="37" viewBox="0 0 108 37" fill="none" xmlns="http://www.w3.org/2000/svg">
<path d="M15.8792 14.0486C17.049 14.0486 18.2187 14.0811 19.3777 14.0378C19.8434 14.027 19.995 14.2002 20.0925 14.6118C20.6666 17.0488 21.2623 19.475 21.8796 22.042C21.9771 21.7712 22.0313 21.6304 22.0746 21.4896C22.692 19.1826 23.3202 16.8755 23.9267 14.5685C24.035 14.1678 24.1975 14.0161 24.6199 14.0378C25.3889 14.0811 26.1471 14.0703 26.9161 14.0378C27.2627 14.027 27.4035 14.1353 27.501 14.4819C28.1292 16.8647 28.779 19.2475 29.4289 21.6196C29.4506 21.6845 29.4722 21.7495 29.5264 21.912C29.7972 21.3596 29.8622 20.8397 29.9813 20.3415C30.4579 18.4135 30.9344 16.4856 31.3785 14.5468C31.4652 14.1786 31.5843 14.0053 32.0175 14.027C33.0465 14.0703 34.0863 14.0486 35.1152 14.0378C35.5052 14.027 35.5593 14.1353 35.4402 14.4927C34.1621 18.5543 32.8949 22.6268 31.6385 26.6993C31.541 27.0134 31.4002 27.1218 31.0861 27.1109C30.1871 27.0893 29.2881 27.0893 28.3891 27.1109C28.0209 27.1218 27.9017 26.9701 27.8151 26.6452C27.1219 24.0241 26.4179 21.4138 25.7138 18.7926C25.5081 18.8793 25.5405 19.0526 25.4972 19.1934C24.869 21.6304 24.23 24.0782 23.6234 26.526C23.5151 26.9485 23.3418 27.0676 22.9194 27.0568C22.0746 27.0243 21.2298 27.0243 20.3958 27.0568C19.9517 27.0784 19.7676 26.9376 19.6484 26.5044C18.4787 22.6052 17.2873 18.7168 16.0958 14.8285C16.0417 14.6335 16.0417 14.4169 15.8575 14.2652L15.8792 14.0486Z" fill="#42175B"/>
<path d="M91.6986 27.0244C90.2039 27.0352 88.7092 27.0352 87.2254 27.0569C86.9329 27.0569 86.8354 26.8619 86.7163 26.6778L84.4418 23.1685C84.236 23.1685 84.2035 23.3527 84.1277 23.461C83.4236 24.5333 82.7196 25.6055 82.0373 26.6886C81.8748 26.9378 81.7123 27.0677 81.3982 27.0569C80.1202 27.0352 78.8313 27.0569 77.5532 27.0461C77.4124 27.0461 77.2283 27.1327 77.1416 26.9486C77.055 26.7645 77.2283 26.667 77.3041 26.5478C78.7446 24.5657 80.1743 22.5837 81.6365 20.6232C81.9398 20.2225 81.9073 19.9734 81.6257 19.5943C80.3909 17.9371 79.1887 16.2583 77.9864 14.5795C77.8781 14.4278 77.7157 14.3087 77.7048 14.0271C79.1779 14.0271 80.6401 14.0271 82.1023 14.0271C82.373 14.0271 82.4272 14.2654 82.5247 14.4387C83.1312 15.4135 83.7161 16.3883 84.366 17.4389C84.9942 16.4208 85.6115 15.4785 86.1531 14.5037C86.3805 14.1029 86.6297 13.9946 87.0629 14.0054C88.3843 14.0271 89.7057 14.0163 91.0487 14.0163C91.0596 14.2762 90.8755 14.4062 90.7563 14.5578C89.4891 16.2908 88.2218 18.0129 86.9438 19.7351C86.7921 19.9517 86.6622 20.1142 86.8679 20.3849C88.4385 22.4862 89.9873 24.5874 91.5578 26.6995C91.5903 26.7428 91.6445 26.7536 91.6986 26.7861V27.0244Z" fill="#42175B"/>
<path d="M46.28 15.3812C46.3233 14.0273 46.3233 14.0273 47.5147 14.0273C48.2404 14.0273 48.9661 14.0382 49.6918 14.0273C49.9951 14.0165 50.1359 14.0707 50.1359 14.4281C50.125 18.5006 50.125 22.5731 50.1359 26.6564C50.1359 27.003 50.0059 27.068 49.7026 27.068C48.782 27.0572 47.8613 27.0355 46.9515 27.0788C46.4208 27.1005 46.215 26.938 46.3017 26.4181C46.3125 26.234 46.3125 26.0499 46.3017 25.8657C45.9984 26.1907 45.7926 26.4614 45.5435 26.6781C44.4062 27.6745 43.0307 27.772 41.6443 27.5662C38.2542 27.068 35.8713 24.2952 35.7738 20.8184C35.6764 17.3417 37.8967 14.4823 41.276 13.7566C42.1425 13.5616 43.0307 13.5508 43.8972 13.7241C44.8611 13.919 45.6301 14.4389 46.28 15.3812ZM42.9549 23.8295C44.7853 23.8403 46.3017 22.3456 46.2908 20.5368C46.28 18.7714 44.807 17.2767 43.0415 17.2658C41.2327 17.2225 39.7164 18.6522 39.673 20.461C39.6297 22.2698 41.0594 23.7862 42.8682 23.8295C42.9007 23.8295 42.9224 23.8295 42.9549 23.8295Z" fill="#42175B"/>
<path d="M57.4925 16.9623C55.7487 16.9623 54.124 16.9515 52.4994 16.9731C52.0878 16.9731 51.9145 16.8973 51.947 16.4424C51.9903 15.7709 51.9686 15.0993 51.947 14.4387C51.9361 14.1462 52.0336 14.0379 52.3369 14.0379C55.3046 14.0487 58.2723 14.0487 61.2401 14.0379C61.5433 14.0379 61.6408 14.1245 61.63 14.4278C61.6083 15.2293 61.6083 16.0308 61.63 16.8432C61.6408 17.1248 61.5 17.3089 61.3592 17.5147L57.0701 23.4718C56.9401 23.6559 56.8101 23.84 56.6802 24.0242C56.7993 24.2191 56.9726 24.1433 57.1134 24.1433C58.4781 24.1541 59.832 24.165 61.1859 24.1433C61.5433 24.1433 61.6516 24.2408 61.6408 24.5982C61.6191 25.2698 61.6083 25.9413 61.6408 26.602C61.6625 27.0027 61.5 27.0785 61.1426 27.0677C58.229 27.0569 55.3263 27.0569 52.4127 27.0677C52.0769 27.0677 51.9036 26.9811 51.9578 26.6236C51.9686 26.5803 51.9686 26.5478 51.9578 26.5045C51.7412 25.0531 52.2178 23.8834 53.1601 22.7461C54.5464 21.0889 55.7704 19.3018 57.0593 17.5688C57.1784 17.3955 57.3084 17.2222 57.4925 16.9623Z" fill="#42175B"/>
<path d="M73.7723 15.3165C74.5088 14.3092 75.397 13.7785 76.5126 13.6269C76.9025 13.5727 77.1083 13.6052 77.0866 14.0926C77.0542 15.0891 77.065 16.0855 77.0866 17.0712C77.0866 17.3853 77.0108 17.5369 76.6751 17.5152C76.5234 17.5152 76.3718 17.5369 76.2202 17.5802C74.7038 17.7968 74.0431 18.5333 74.0431 20.0714C74.0323 22.1726 74.0214 24.2738 74.0539 26.3859C74.0648 26.8841 73.9673 27.0899 73.4041 27.0683C72.4509 27.0141 71.487 27.0466 70.5338 27.0574C70.2089 27.0574 70.1006 26.9599 70.1006 26.635C70.1114 22.5625 70.1114 18.49 70.1006 14.4175C70.1006 14.1143 70.2089 14.0276 70.5013 14.0276C71.422 14.0384 72.3426 14.0601 73.2524 14.0168C73.7073 13.9951 73.8265 14.1576 73.7723 14.5692C73.7615 14.8183 73.7615 15.0674 73.7723 15.3165Z" fill="#42175B"/>
<path d="M67.3257 20.5912C67.3257 22.5624 67.3149 24.5337 67.3366 26.5049C67.3366 26.9165 67.2607 27.079 66.8058 27.0682C65.8094 27.0357 64.8129 27.0465 63.8165 27.0682C63.4915 27.0682 63.394 26.9599 63.394 26.6349C63.4049 22.5733 63.4049 18.5224 63.394 14.4608C63.394 14.0817 63.5348 14.0275 63.8706 14.0275C64.8671 14.0492 65.8635 14.0492 66.86 14.0275C67.2391 14.0167 67.3474 14.1358 67.3474 14.5149C67.3257 16.5403 67.3257 18.5658 67.3257 20.5912Z" fill="#42175B"/>
<path d="M67.0221 11.1677C67.0329 12.0667 66.3181 12.8032 65.4299 12.814C65.3974 12.814 65.3758 12.814 65.3433 12.814C64.4226 12.814 63.6753 12.0667 63.6753 11.1352C63.6753 11.1352 63.6753 11.1352 63.6753 11.1243C63.697 10.2037 64.4443 9.46719 65.3758 9.45636C66.2964 9.47802 67.0329 10.2362 67.0221 11.1677C67.0221 11.1568 67.0221 11.1568 67.0221 11.1677Z" fill="#42175B"/>
</svg>
